<svg xmlns="http://www.w3.org/2000/svg" viewBox="0 0 256 256"><defs><clipPath id="clip-path"><path fill="none" d="M0 0h256v256H0z"/></clipPath><style>.cls-3{clip-path:url(#clip-path)}.cls-4{fill:#fff}.cls-6{fill:#0086a7}</style></defs><path fill="#f2f2f2" d="M0 0h128.32v256H0z"/><g class="cls-3"><path class="cls-4" d="M34.57 47s-6 0-6 6v141s0 6 6 6h187.5s6 0 6-6V53s0-6-6-6H34.57Z"/><path d="M34.57 47s-6 0-6 6v141s0 6 6 6h187.5s6 0 6-6V53s0-6-6-6H34.57Z" stroke-width="2" stroke="#0086a7" fill="none"/><path class="cls-6" d="M228.07 66V53s0-6-6-6H34.57s-6 0-6 6v13h199.5Z"/><path class="cls-4" d="M37.82 60a3.5 3.5 0 1 0-3.5-3.5 3.5 3.5 0 0 0 3.5 3.5M48.57 60a3.5 3.5 0 1 0-3.5-3.5 3.5 3.5 0 0 0 3.5 3.5M59.32 60a3.5 3.5 0 1 0-3.5-3.5 3.5 3.5 0 0 0 3.5 3.5"/></g><path class="cls-6" d="M41.71 87h74.5v11h-74.5zM41.71 107.5h74.5v11h-74.5zM41.71 128h74.5v11h-74.5zM41.71 148.5h74.5v11h-74.5zM41.71 169h74.5v11h-74.5zM128.32 0H256v256H128.32z"/><g class="cls-3"><path d="M128.32 200h93.75s6 0 6-6V53s0-6-6-6h-93.75" stroke="#fff" stroke-width="2" fill="none"/><path class="cls-4" d="M228.07 66V53s0-6-6-6h-93.75v19h99.75Z"/></g><path class="cls-4" d="M140.94 87h74.5v11h-74.5zM140.94 107.5h74.5v11h-74.5zM140.94 128h74.5v11h-74.5zM140.94 148.5h74.5v11h-74.5zM140.94 169h74.5v11h-74.5z"/></svg>